<?xml version="1.0" encoding="iso-8859-1"?>
<!-- Generator: Adobe Illustrator 16.0.0, SVG Export Plug-In . SVG Version: 6.00 Build 0)  -->
<!DOCTYPE svg PUBLIC "-//W3C//DTD SVG 1.1//EN" "http://www.w3.org/Graphics/SVG/1.1/DTD/svg11.dtd">
<svg version="1.1" xmlns="http://www.w3.org/2000/svg" xmlns:xlink="http://www.w3.org/1999/xlink" x="0px" y="0px" width="252px"
	 height="184px" viewBox="0 0 252 184" style="enable-background:new 0 0 252 184;" xml:space="preserve">
<g id="Layer_207">
	<g>
		<g>
			<rect y="84" style="fill:#ACF0F2;" width="48" height="80"/>
			<path style="fill:#FFB957;" d="M236.125,107.25c-1.727,0-3.367,0.363-4.848,1.02l-61.418,22.188l-0.141,0.031
				C173.445,128.449,176,124.543,176,120c0-6.629-5.375-12-12-12h-36L84,92H48v64h20c0,0,64,24,76,24s99.188-51.047,99.188-51.047
				c2.992-2.18,4.813-4.965,4.813-8.953C248,113.371,242.75,107.25,236.125,107.25z"/>
			<polyline style="fill:none;stroke:#4D5152;stroke-width:8;stroke-miterlimit:10;" points="0,84 48,84 48,164 0,164 			"/>
			<path style="fill:none;stroke:#4D5152;stroke-width:8;stroke-miterlimit:10;" d="M80,92"/>
			<path style="fill:none;stroke:#4D5152;stroke-width:8;stroke-miterlimit:10;" d="M48,92h36l44,16h36c6.625,0,12,5.371,12,12
				s-5.375,12-12,12h-44c-6.625,0-12,5.371-12,12"/>
			<line style="fill:none;stroke:#4D5152;stroke-width:8;stroke-miterlimit:10;" x1="32" y1="152" x2="32" y2="144"/>
			<line style="fill:none;stroke:#4D5152;stroke-width:8;stroke-miterlimit:10;" x1="32" y1="136" x2="32" y2="128"/>
			<path style="fill:none;stroke:#4D5152;stroke-width:8;stroke-miterlimit:10;" d="M169.859,130.457l61.418-22.188
				c1.48-0.656,3.121-1.02,4.848-1.02c6.625,0,11.875,6.121,11.875,12.75c0,3.988-1.82,6.773-4.813,8.953
				c0,0-87.188,51.047-99.188,51.047s-76-24-76-24H48"/>
			<g>
				<circle style="fill:#FFFFFF;" cx="176" cy="64" r="20"/>
				<circle style="fill:none;stroke:#4D5152;stroke-width:8;stroke-miterlimit:10;" cx="176" cy="64" r="20"/>
			</g>
			<g>
				<circle style="fill:#FFFFFF;" cx="120" cy="24" r="20"/>
				<circle style="fill:none;stroke:#4D5152;stroke-width:8;stroke-miterlimit:10;" cx="120" cy="24" r="20"/>
			</g>
		</g>
	</g>
</g>
<g id="Layer_1">
</g>
</svg>
