<?xml version="1.0" encoding="iso-8859-1"?>
<!-- Generator: Adobe Illustrator 16.0.0, SVG Export Plug-In . SVG Version: 6.00 Build 0)  -->
<!DOCTYPE svg PUBLIC "-//W3C//DTD SVG 1.1//EN" "http://www.w3.org/Graphics/SVG/1.1/DTD/svg11.dtd">
<svg version="1.1" xmlns="http://www.w3.org/2000/svg" xmlns:xlink="http://www.w3.org/1999/xlink" x="0px" y="0px" width="256px"
	 height="256px" viewBox="0 0 256 256" style="enable-background:new 0 0 256 256;" xml:space="preserve">
<g id="Layer_349">
	<g>
		<g>
			<path style="fill:#67DDE0;" d="M256,128c0,70.695-57.305,128-128,128S0,198.695,0,128S57.305,0,128,0S256,57.305,256,128z"/>
			<g>
				<polygon style="fill:#FFFFFF;" points="64,208 4,148 64,88 				"/>
				<polygon style="fill:#FFFFFF;" points="192,48 252,108 192,168 				"/>
				<rect x="64" y="88" style="fill:#FFFFFF;" width="128" height="80"/>
				<polyline style="fill:none;stroke:#4D5152;stroke-width:8;stroke-linejoin:round;stroke-miterlimit:10;" points="64,168 64,208 
					4,148 64,88 64,128 192,128 192,168 252,108 192,48 192,88 				"/>
				
					<line style="fill:none;stroke:#4D5152;stroke-width:8;stroke-linejoin:round;stroke-miterlimit:10;" x1="84" y1="108" x2="92" y2="108"/>
				
					<line style="fill:none;stroke:#4D5152;stroke-width:8;stroke-linejoin:round;stroke-miterlimit:10;" x1="100" y1="108" x2="108" y2="108"/>
				
					<line style="fill:none;stroke:#4D5152;stroke-width:8;stroke-linejoin:round;stroke-miterlimit:10;" x1="116" y1="108" x2="124" y2="108"/>
				
					<line style="fill:none;stroke:#4D5152;stroke-width:8;stroke-linejoin:round;stroke-miterlimit:10;" x1="132" y1="148" x2="140" y2="148"/>
				
					<line style="fill:none;stroke:#4D5152;stroke-width:8;stroke-linejoin:round;stroke-miterlimit:10;" x1="148" y1="148" x2="156" y2="148"/>
				
					<line style="fill:none;stroke:#4D5152;stroke-width:8;stroke-linejoin:round;stroke-miterlimit:10;" x1="164" y1="148" x2="172" y2="148"/>
				
					<line style="fill:none;stroke:#4D5152;stroke-width:8;stroke-linejoin:round;stroke-miterlimit:10;" x1="132" y1="108" x2="196" y2="108"/>
				
					<line style="fill:none;stroke:#4D5152;stroke-width:8;stroke-linejoin:round;stroke-miterlimit:10;" x1="60" y1="148" x2="124" y2="148"/>
			</g>
		</g>
	</g>
</g>
<g id="Layer_1">
</g>
</svg>
