<?xml version="1.0" encoding="iso-8859-1"?>
<!-- Generator: Adobe Illustrator 16.0.0, SVG Export Plug-In . SVG Version: 6.00 Build 0)  -->
<!DOCTYPE svg PUBLIC "-//W3C//DTD SVG 1.1//EN" "http://www.w3.org/Graphics/SVG/1.1/DTD/svg11.dtd">
<svg version="1.1" xmlns="http://www.w3.org/2000/svg" xmlns:xlink="http://www.w3.org/1999/xlink" x="0px" y="0px" width="256px"
	 height="192px" viewBox="0 0 256 192" style="enable-background:new 0 0 256 192;" xml:space="preserve">
<g id="Layer_287">
	<g>
		<g>
			<polygon style="fill:#67DDE0;" points="252,160 164,160 164,56 216,56 252,112 			"/>
			<rect x="4" y="4" style="fill:#FFFFFF;" width="160" height="156"/>
			<rect x="4" y="4" style="fill:none;stroke:#4D5152;stroke-width:8;stroke-miterlimit:10;" width="160" height="156"/>
			<polygon style="fill:none;stroke:#4D5152;stroke-width:8;stroke-miterlimit:10;" points="252,160 164,160 164,56 216,56 252,112 
							"/>
			<g>
				<circle style="fill:#FFFFFF;" cx="208" cy="160" r="28"/>
				<circle style="fill:none;stroke:#4D5152;stroke-width:8;stroke-miterlimit:10;" cx="208" cy="160" r="28"/>
				<circle style="fill:#ACF0F2;" cx="208" cy="160" r="16"/>
				<line style="fill:none;stroke:#4D5152;stroke-width:8;stroke-miterlimit:10;" x1="204" y1="160" x2="212" y2="160"/>
			</g>
			<g>
				<circle style="fill:#FFFFFF;" cx="48" cy="160" r="28"/>
				<circle style="fill:none;stroke:#4D5152;stroke-width:8;stroke-miterlimit:10;" cx="48" cy="160" r="28"/>
				<circle style="fill:#ACF0F2;" cx="48" cy="160" r="16"/>
				<line style="fill:none;stroke:#4D5152;stroke-width:8;stroke-miterlimit:10;" x1="44" y1="160" x2="52" y2="160"/>
			</g>
			<polygon style="fill:#FFFFFF;" points="232,104 176,104 176,68 208,68 			"/>
			<rect x="24" y="24" style="fill:#F28C13;" width="120" height="64"/>
			<line style="fill:none;stroke:#4D5152;stroke-width:8;stroke-miterlimit:10;" x1="240" y1="116" x2="252" y2="116"/>
			<line style="fill:none;stroke:#4D5152;stroke-width:8;stroke-miterlimit:10;" x1="144" y1="100" x2="88" y2="100"/>
			<line style="fill:none;stroke:#4D5152;stroke-width:8;stroke-miterlimit:10;" x1="144" y1="116" x2="112" y2="116"/>
			<polygon style="fill:#FFFFFF;" points="88,56 56,36 56,44 16,44 16,68 56,68 56,76 			"/>
			<line style="fill:none;stroke:#4D5152;stroke-width:8;stroke-miterlimit:10;" x1="4" y1="116" x2="16" y2="116"/>
		</g>
	</g>
</g>
<g id="Layer_1">
</g>
</svg>
