<?xml version="1.0" encoding="utf-8"?>
<!-- Generator: Adobe Illustrator 19.0.0, SVG Export Plug-In . SVG Version: 6.00 Build 0)  -->
<svg version="1.1" id="图层_1" xmlns="http://www.w3.org/2000/svg" xmlns:xlink="http://www.w3.org/1999/xlink" x="0px" y="0px"
	 viewBox="-7817 2757.2 240 240" style="enable-background:new -7817 2757.2 240 240;" xml:space="preserve">
<style type="text/css">
	.st0{fill:#FFFFFF;}
	.st1{fill:#ACF0F2;}
	.st2{fill:none;stroke:#4D5152;stroke-width:8;stroke-miterlimit:10;}
	.st3{fill:#F28C13;}
</style>
<g id="Layer_312">
	<g>
		<g>
			<polyline class="st0" points="-7730,2835.5 -7741.6,2835.5 -7799.3,2893.2 -7799.3,2927.9 -7730,2927.9 			"/>
			<polyline class="st0" points="-7660.7,2835.5 -7649.2,2835.5 -7591.4,2893.2 -7591.4,2927.9 -7660.7,2927.9 			"/>
			<path class="st1" d="M-7730,2827.8c0-34.7,34.7-69.3,34.7-69.3s34.7,34.7,34.7,69.3v100.1h-69.3V2827.8z"/>
			<path class="st2" d="M-7730,2827.8c0-34.7,34.7-69.3,34.7-69.3s34.7,34.7,34.7,69.3v100.1h-69.3V2827.8z"/>
			<circle class="st0" cx="-7695.4" cy="2847" r="11.6"/>
			<circle class="st0" cx="-7695.4" cy="2808.5" r="11.6"/>
			<circle class="st0" cx="-7695.4" cy="2885.5" r="11.6"/>
			<circle class="st2" cx="-7695.4" cy="2847" r="11.6"/>
			<circle class="st2" cx="-7695.4" cy="2808.5" r="11.6"/>
			<circle class="st2" cx="-7695.4" cy="2885.5" r="11.6"/>
			<g>
				<path class="st0" d="M-7730,2908.6c-10.6,0-19.3,8.6-19.3,19.3v27h38.5v-27C-7710.8,2917.3-7719.4,2908.6-7730,2908.6z"/>
				<path class="st2" d="M-7730,2908.6c-10.6,0-19.3,8.6-19.3,19.3v27h38.5v-27C-7710.8,2917.3-7719.4,2908.6-7730,2908.6z"/>
			</g>
			<g>
				<path class="st0" d="M-7660.7,2908.6c-10.6,0-19.3,8.6-19.3,19.3v27h38.5v-27C-7641.5,2917.3-7650.1,2908.6-7660.7,2908.6z"/>
				<path class="st2" d="M-7660.7,2908.6c-10.6,0-19.3,8.6-19.3,19.3v27h38.5v-27C-7641.5,2917.3-7650.1,2908.6-7660.7,2908.6z"/>
			</g>
			<polyline class="st2" points="-7660.7,2835.5 -7649.2,2835.5 -7591.4,2893.2 -7591.4,2927.9 -7641.5,2927.9 			"/>
			<polyline class="st2" points="-7730,2835.5 -7741.6,2835.5 -7799.3,2893.2 -7799.3,2927.9 -7749.3,2927.9 			"/>
			<line class="st2" x1="-7737.7" y1="2966.4" x2="-7737.7" y2="2997.2"/>
			<line class="st2" x1="-7722.3" y1="2966.4" x2="-7722.3" y2="2997.2"/>
			<line class="st2" x1="-7668.4" y1="2966.4" x2="-7668.4" y2="2997.2"/>
			<line class="st2" x1="-7653" y1="2966.4" x2="-7653" y2="2997.2"/>
			<line class="st2" x1="-7660.7" y1="2954.8" x2="-7660.7" y2="2943.3"/>
			<line class="st2" x1="-7730" y1="2954.8" x2="-7730" y2="2943.3"/>
			<line class="st2" x1="-7695.4" y1="2777.7" x2="-7695.4" y2="2785.4"/>
			<line class="st2" x1="-7695.4" y1="2908.6" x2="-7695.4" y2="2916.3"/>
			<path class="st3" d="M-7649.2,2850.9v50.1c7.7,0,15.4,7.7,15.4,15.4h30.8v-19.3L-7649.2,2850.9z"/>
			<path class="st3" d="M-7741.6,2850.9v50.1c-7.7,0-15.4,7.7-15.4,15.4h-30.8v-19.3L-7741.6,2850.9z"/>
		</g>
	</g>
</g>
<g id="Layer_1">
</g>
</svg>
