<?xml version="1.0" encoding="iso-8859-1"?>
<!-- Generator: Adobe Illustrator 16.0.0, SVG Export Plug-In . SVG Version: 6.00 Build 0)  -->
<!DOCTYPE svg PUBLIC "-//W3C//DTD SVG 1.1//EN" "http://www.w3.org/Graphics/SVG/1.1/DTD/svg11.dtd">
<svg version="1.1" xmlns="http://www.w3.org/2000/svg" xmlns:xlink="http://www.w3.org/1999/xlink" x="0px" y="0px" width="256px"
	 height="200px" viewBox="0 0 256 200" style="enable-background:new 0 0 256 200;" xml:space="preserve">
<g id="Layer_128">
	<g>
		<g>
			<rect x="20" y="148" style="fill:#FFFFFF;" width="128" height="48"/>
			<rect x="188" y="4" style="fill:#FFFFFF;" width="64" height="160"/>
			<path style="fill:#FFFFFF;" d="M164,16c0-6.629-5.375-12-12-12H16C9.375,4,4,9.371,4,16v96c0,6.629,5.375,12,12,12h136
				c6.625,0,12-5.371,12-12V16z"/>
			<path style="fill:none;stroke:#4D5152;stroke-width:8;stroke-miterlimit:10;" d="M164,16c0-6.629-5.375-12-12-12H16
				C9.375,4,4,9.371,4,16v96c0,6.629,5.375,12,12,12h136c6.625,0,12-5.371,12-12V16z"/>
			<line style="fill:none;stroke:#4D5152;stroke-width:8;stroke-miterlimit:10;" x1="100" y1="124" x2="100" y2="136"/>
			<line style="fill:none;stroke:#4D5152;stroke-width:8;stroke-miterlimit:10;" x1="68" y1="136" x2="68" y2="124"/>
			<rect x="16" y="16" style="fill:#67DDE0;" width="136" height="96"/>
			<rect x="188" y="4" style="fill:none;stroke:#4D5152;stroke-width:8;stroke-miterlimit:10;" width="64" height="160"/>
			<rect x="20" y="148" style="fill:none;stroke:#4D5152;stroke-width:8;stroke-miterlimit:10;" width="128" height="48"/>
			<line style="fill:none;stroke:#4D5152;stroke-width:8;stroke-miterlimit:10;" x1="32" y1="164" x2="40" y2="164"/>
			<line style="fill:none;stroke:#4D5152;stroke-width:8;stroke-miterlimit:10;" x1="48" y1="164" x2="56" y2="164"/>
			<line style="fill:none;stroke:#4D5152;stroke-width:8;stroke-miterlimit:10;" x1="64" y1="164" x2="72" y2="164"/>
			<line style="fill:none;stroke:#4D5152;stroke-width:8;stroke-miterlimit:10;" x1="80" y1="164" x2="88" y2="164"/>
			<line style="fill:none;stroke:#4D5152;stroke-width:8;stroke-miterlimit:10;" x1="96" y1="164" x2="104" y2="164"/>
			<line style="fill:none;stroke:#4D5152;stroke-width:8;stroke-miterlimit:10;" x1="112" y1="164" x2="120" y2="164"/>
			<line style="fill:none;stroke:#4D5152;stroke-width:8;stroke-miterlimit:10;" x1="128" y1="164" x2="136" y2="164"/>
			<line style="fill:none;stroke:#4D5152;stroke-width:8;stroke-miterlimit:10;" x1="32" y1="180" x2="40" y2="180"/>
			<line style="fill:none;stroke:#4D5152;stroke-width:8;stroke-miterlimit:10;" x1="48" y1="180" x2="56" y2="180"/>
			<line style="fill:none;stroke:#4D5152;stroke-width:8;stroke-miterlimit:10;" x1="64" y1="180" x2="104" y2="180"/>
			<line style="fill:none;stroke:#4D5152;stroke-width:8;stroke-miterlimit:10;" x1="112" y1="180" x2="120" y2="180"/>
			<line style="fill:none;stroke:#4D5152;stroke-width:8;stroke-miterlimit:10;" x1="128" y1="180" x2="136" y2="180"/>
			<circle style="fill:#FFB957;" cx="220" cy="132" r="12"/>
			<rect x="204" y="20" style="fill:none;stroke:#4D5152;stroke-width:8;stroke-miterlimit:10;" width="32" height="16"/>
			<rect x="204" y="52" style="fill:none;stroke:#4D5152;stroke-width:8;stroke-miterlimit:10;" width="32" height="16"/>
			<rect x="204" y="84" style="fill:none;stroke:#4D5152;stroke-width:8;stroke-miterlimit:10;" width="32" height="16"/>
			<line style="fill:none;stroke:#4D5152;stroke-width:8;stroke-miterlimit:10;" x1="80" y1="100" x2="88" y2="100"/>
			<line style="fill:none;stroke:#4D5152;stroke-width:8;stroke-miterlimit:10;" x1="64" y1="100" x2="72" y2="100"/>
			<line style="fill:none;stroke:#4D5152;stroke-width:8;stroke-miterlimit:10;" x1="96" y1="100" x2="104" y2="100"/>
		</g>
	</g>
</g>
<g id="Layer_1">
</g>
</svg>
