<?xml version="1.0" encoding="iso-8859-1"?>
<!-- Generator: Adobe Illustrator 16.0.0, SVG Export Plug-In . SVG Version: 6.00 Build 0)  -->
<!DOCTYPE svg PUBLIC "-//W3C//DTD SVG 1.1//EN" "http://www.w3.org/Graphics/SVG/1.1/DTD/svg11.dtd">
<svg version="1.1" xmlns="http://www.w3.org/2000/svg" xmlns:xlink="http://www.w3.org/1999/xlink" x="0px" y="0px" width="216px"
	 height="224.473px" viewBox="0 0 216 224.473" style="enable-background:new 0 0 216 224.473;" xml:space="preserve">
<g id="Layer_208">
	<g>
		<g>
			<polyline style="fill:#FFFFFF;" points="68,36.473 52,12.473 68,4.473 84,12.473 100,4.473 116,12.473 100,36.473 			"/>
			<path style="fill:#FFFFFF;" d="M100,52.473c0,0,28,12,40,24s24,52,24,124c0,12-8.953,20-20,20H24c-11.047,0-20-8-20-20
				c0-72,12-112,24-124s40-24,40-24"/>
			<path style="fill:none;stroke:#4D5152;stroke-width:8;stroke-miterlimit:10;" d="M100,52.473c0,0,28,12,40,24s24,52,24,124
				c0,12-8.953,20-20,20H24c-11.047,0-20-8-20-20c0-72,12-112,24-124s40-24,40-24"/>
			<rect x="68" y="36.473" style="fill:#FFB957;" width="32" height="16"/>
			<rect x="68" y="36.473" style="fill:none;stroke:#4D5152;stroke-width:8;stroke-miterlimit:10;" width="32" height="16"/>
			<polyline style="fill:none;stroke:#4D5152;stroke-width:8;stroke-miterlimit:10;" points="68,36.473 52,12.473 68,4.473 
				84,12.473 100,4.473 116,12.473 100,36.473 			"/>
			<circle style="fill:#67DDE0;" cx="84" cy="120.473" r="48"/>
			<g>
				<g>
					<rect x="172" y="204.473" style="fill:#FFB957;" width="40" height="16"/>
					<rect x="172" y="204.473" style="fill:none;stroke:#4D5152;stroke-width:8;stroke-miterlimit:10;" width="40" height="16"/>
				</g>
				<g>
					<rect x="172" y="188.473" style="fill:#FFB957;" width="40" height="16"/>
					<rect x="172" y="188.473" style="fill:none;stroke:#4D5152;stroke-width:8;stroke-miterlimit:10;" width="40" height="16"/>
				</g>
				<g>
					<rect x="172" y="172.473" style="fill:#FFB957;" width="40" height="16"/>
					<rect x="172" y="172.473" style="fill:none;stroke:#4D5152;stroke-width:8;stroke-miterlimit:10;" width="40" height="16"/>
				</g>
				<g>
					<rect x="172" y="156.473" style="fill:#FFB957;" width="40" height="16"/>
					<rect x="172" y="156.473" style="fill:none;stroke:#4D5152;stroke-width:8;stroke-miterlimit:10;" width="40" height="16"/>
				</g>
				<g>
					<rect x="132" y="204.473" style="fill:#FFB957;" width="40" height="16"/>
					<rect x="132" y="204.473" style="fill:none;stroke:#4D5152;stroke-width:8;stroke-miterlimit:10;" width="40" height="16"/>
				</g>
				<g>
					<rect x="132" y="188.473" style="fill:#FFB957;" width="40" height="16"/>
					<rect x="132" y="188.473" style="fill:none;stroke:#4D5152;stroke-width:8;stroke-miterlimit:10;" width="40" height="16"/>
				</g>
				<g>
					<rect x="132" y="172.473" style="fill:#FFB957;" width="40" height="16"/>
					<rect x="132" y="172.473" style="fill:none;stroke:#4D5152;stroke-width:8;stroke-miterlimit:10;" width="40" height="16"/>
				</g>
				<g>
					<rect x="132" y="156.473" style="fill:#FFB957;" width="40" height="16"/>
					<rect x="132" y="156.473" style="fill:none;stroke:#4D5152;stroke-width:8;stroke-miterlimit:10;" width="40" height="16"/>
				</g>
				<g>
					<rect x="92" y="204.473" style="fill:#FFB957;" width="40" height="16"/>
					<rect x="92" y="204.473" style="fill:none;stroke:#4D5152;stroke-width:8;stroke-miterlimit:10;" width="40" height="16"/>
				</g>
				<g>
					<rect x="92" y="188.473" style="fill:#FFB957;" width="40" height="16"/>
					<rect x="92" y="188.473" style="fill:none;stroke:#4D5152;stroke-width:8;stroke-miterlimit:10;" width="40" height="16"/>
				</g>
				<g>
					<rect x="172" y="140.473" style="fill:#FFB957;" width="40" height="16"/>
					<rect x="172" y="140.473" style="fill:none;stroke:#4D5152;stroke-width:8;stroke-miterlimit:10;" width="40" height="16"/>
				</g>
				<g>
					<rect x="172" y="124.473" style="fill:#FFB957;" width="40" height="16"/>
					<rect x="172" y="124.473" style="fill:none;stroke:#4D5152;stroke-width:8;stroke-miterlimit:10;" width="40" height="16"/>
				</g>
			</g>
			<g>
				<path style="fill:none;stroke:#4D5152;stroke-width:8;stroke-miterlimit:10;" d="M72,132.473c0,6.625,5.375,12,12,12
					s12-5.375,12-12s-6.605-10.588-12-12s-12-5.375-12-12s5.375-12,12-12s12,5.375,12,12"/>
			</g>
			<line style="fill:none;stroke:#4D5152;stroke-width:8;stroke-miterlimit:10;" x1="84" y1="96.473" x2="84" y2="88.473"/>
			<line style="fill:none;stroke:#4D5152;stroke-width:8;stroke-miterlimit:10;" x1="84" y1="144.473" x2="84" y2="152.473"/>
			<line style="fill:none;stroke:#4D5152;stroke-width:8;stroke-miterlimit:10;" x1="108" y1="120.473" x2="116" y2="120.473"/>
			<line style="fill:none;stroke:#4D5152;stroke-width:8;stroke-miterlimit:10;" x1="52" y1="120.473" x2="60" y2="120.473"/>
		</g>
	</g>
</g>
<g id="Layer_1">
</g>
</svg>
