<?xml version="1.0" encoding="iso-8859-1"?>
<!-- Generator: Adobe Illustrator 16.0.0, SVG Export Plug-In . SVG Version: 6.00 Build 0)  -->
<!DOCTYPE svg PUBLIC "-//W3C//DTD SVG 1.1//EN" "http://www.w3.org/Graphics/SVG/1.1/DTD/svg11.dtd">
<svg version="1.1" xmlns="http://www.w3.org/2000/svg" xmlns:xlink="http://www.w3.org/1999/xlink" x="0px" y="0px" width="224px"
	 height="228px" viewBox="0 0 224 228" style="enable-background:new 0 0 224 228;" xml:space="preserve">
<g id="Layer_43">
	<g>
		<g>
			<polygon style="fill:#FFFFFF;" points="136,136 112,144 88,136 88,120 112,124 136,120 			"/>
			<path style="fill:#67DDE0;" d="M152,156c28,16,68,12,68,52v16H4v-16c0-40,40-36,68-52"/>
			<polygon style="fill:#FFFFFF;" points="128,176 112,160 96,176 72,156 80,136 112,144 144,136 152,156 			"/>
			<path style="fill:#FFB957;" d="M68,56c0-24.301,19.699-36,44-36s44,11.699,44,36l-20,8l-24-8l-24-8L68,56z"/>
			<path style="fill:#FFFFFF;" d="M156,56v24c-4,28-20,40-20,40c-8,4-24,4-24,4s-16,0-24-4c0,0-16-12-20-40V56l20-8l24,8l24,8
				L156,56z"/>
			<path style="fill:#ACF0F2;" d="M68,96c-11.047,0-20-8.953-20-20s8.953-20,20-20"/>
			<path style="fill:#ACF0F2;" d="M156,56c11.047,0,20,8.953,20,20s-8.953,20-20,20"/>
			<path style="fill:none;stroke:#4D5152;stroke-width:8;stroke-miterlimit:10;" d="M148,156"/>
			<path style="fill:none;stroke:#4D5152;stroke-width:8;stroke-miterlimit:10;" d="M152,156c28,16,68,12,68,52v16H4v-16
				c0-40,40-36,68-52"/>
			<polygon style="fill:none;stroke:#4D5152;stroke-width:8;stroke-miterlimit:10;" points="128,176 112,160 96,176 72,156 80,136 
				112,144 144,136 152,156 			"/>
			<line style="fill:none;stroke:#4D5152;stroke-width:8;stroke-miterlimit:10;" x1="136" y1="120" x2="136" y2="136"/>
			<line style="fill:none;stroke:#4D5152;stroke-width:8;stroke-miterlimit:10;" x1="88" y1="136" x2="88" y2="120"/>
			<path style="fill:none;stroke:#4D5152;stroke-width:8;stroke-miterlimit:10;" d="M156,56v24c-4,28-20,40-20,40c-8,4-24,4-24,4
				s-16,0-24-4c0,0-16-12-20-40V56"/>
			<path style="fill:none;stroke:#4D5152;stroke-width:8;stroke-miterlimit:10;" d="M68,56c0-24.301,19.699-36,44-36
				s44,11.699,44,36"/>
			<path style="fill:none;stroke:#4D5152;stroke-width:8;stroke-miterlimit:10;" d="M156,56c11.047,0,20,8.953,20,20
				s-8.953,20-20,20"/>
			<path style="fill:none;stroke:#4D5152;stroke-width:8;stroke-miterlimit:10;" d="M52,64c0-40,26.863-60,60-60s60,20,60,60"/>
			<path style="fill:none;stroke:#4D5152;stroke-width:8;stroke-miterlimit:10;" d="M112,104c36,0,44-8,44-8"/>
			<line style="fill:none;stroke:#4D5152;stroke-width:8;stroke-miterlimit:10;" x1="108" y1="208" x2="116" y2="208"/>
			<line style="fill:none;stroke:#4D5152;stroke-width:8;stroke-miterlimit:10;" x1="108" y1="192" x2="116" y2="192"/>
			<g>
				<path style="fill:none;stroke:#4D5152;stroke-width:8;stroke-miterlimit:10;" d="M72,96h-4c-11.047,0-20-8.953-20-20
					s8.953-20,20-20"/>
			</g>
			<polyline style="fill:none;stroke:#4D5152;stroke-width:8;stroke-miterlimit:10;" points="68,56 88,48 112,56 136,64 156,56 			
				"/>
		</g>
	</g>
</g>
<g id="Layer_1">
</g>
</svg>
