<?xml version="1.0" encoding="iso-8859-1"?>
<!-- Generator: Adobe Illustrator 16.0.0, SVG Export Plug-In . SVG Version: 6.00 Build 0)  -->
<!DOCTYPE svg PUBLIC "-//W3C//DTD SVG 1.1//EN" "http://www.w3.org/Graphics/SVG/1.1/DTD/svg11.dtd">
<svg version="1.1" xmlns="http://www.w3.org/2000/svg" xmlns:xlink="http://www.w3.org/1999/xlink" x="0px" y="0px" width="256px"
	 height="256px" viewBox="0 0 256 256" style="enable-background:new 0 0 256 256;" xml:space="preserve">
<g id="Layer_34">
	<g>
		<g>
			<path style="fill:#F59D15;" d="M204,80c0,41.969-34.031,76-76,76s-76-34.031-76-76S86.031,4,128,4S204,38.031,204,80z"/>
			<path style="fill:none;stroke:#5F6465;stroke-width:8;stroke-miterlimit:10;" d="M204,80c0,41.969-34.031,76-76,76
				s-76-34.031-76-76S86.031,4,128,4S204,38.031,204,80z"/>
			<circle style="fill:#FFFFFF;" cx="128" cy="80" r="56"/>
			<path style="fill:#FFFFFF;" d="M28,136h16l40,40c8,8,8,20,8,20v32H48v-8c0,0,0-8-8-16l-28-28c-8-8-8-16-8-16V96
				c0-6.625,5.375-12,12-12s12,5.375,12,12v32V136z"/>
			<path style="fill:#FFFFFF;" d="M228,136h-16l-40,40c-8,8-8,20-8,20v32h44v-8c0,0,0-8,8-16l28-28c8-8,8-16,8-16V96
				c0-6.625-5.375-12-12-12s-12,5.375-12,12v32V136z"/>
			<rect x="40" y="228" style="fill:#B7F1F4;" width="60" height="24"/>
			<rect x="156" y="228" style="fill:#B7F1F4;" width="60" height="24"/>
			<path style="fill:none;stroke:#5F6465;stroke-width:8;stroke-miterlimit:10;" d="M56,180l-28-28v-4c0-6.625,5.375-12,12-12h4
				l40,40c8,8,8,20,8,20v32H48v-8c0,0,0-8-8-16l-28-28c-8-8-8-16-8-16V96c0-6.625,5.375-12,12-12s12,5.375,12,12v32"/>
			<rect x="40" y="228" style="fill:none;stroke:#5F6465;stroke-width:8;stroke-miterlimit:10;" width="60" height="24"/>
			<path style="fill:none;stroke:#5F6465;stroke-width:8;stroke-miterlimit:10;" d="M200,180l28-28v-4c0-6.625-5.375-12-12-12h-4
				l-40,40c-8,8-8,20-8,20v32h44v-8c0,0,0-8,8-16l28-28c8-8,8-16,8-16V96c0-6.625-5.375-12-12-12s-12,5.375-12,12v32"/>
			<rect x="156" y="228" style="fill:none;stroke:#5F6465;stroke-width:8;stroke-miterlimit:10;" width="60" height="24"/>
			<g>
				<path style="fill:none;stroke:#5F6465;stroke-width:8;stroke-miterlimit:10;" d="M144,64c0-8.836-7.164-16-16-16
					s-16,7.164-16,16s8,12,16,16s16,7.164,16,16s-7.164,16-16,16s-16-7.164-16-16"/>
				<line style="fill:none;stroke:#5F6465;stroke-width:8;stroke-miterlimit:10;" x1="128" y1="48" x2="128" y2="36"/>
				<line style="fill:none;stroke:#5F6465;stroke-width:8;stroke-miterlimit:10;" x1="128" y1="112" x2="128" y2="124"/>
			</g>
		</g>
	</g>
</g>
<g id="Layer_1">
</g>
</svg>
