<?xml version="1.0" encoding="iso-8859-1"?>
<!-- Generator: Adobe Illustrator 16.0.0, SVG Export Plug-In . SVG Version: 6.00 Build 0)  -->
<!DOCTYPE svg PUBLIC "-//W3C//DTD SVG 1.1//EN" "http://www.w3.org/Graphics/SVG/1.1/DTD/svg11.dtd">
<svg version="1.1" xmlns="http://www.w3.org/2000/svg" xmlns:xlink="http://www.w3.org/1999/xlink" x="0px" y="0px" width="240px"
	 height="240px" viewBox="0 0 240 240" style="enable-background:new 0 0 240 240;" xml:space="preserve">
<g id="Layer_31">
	<g>
		<g>
			<circle style="fill:#FFFFFF;" cx="120" cy="120" r="116"/>
			<path style="fill:#FFB957;" d="M32.273,195.844c21.266-12.707,52.68-20.75,87.727-20.75s66.457,8.043,87.727,20.75
				C225.328,175.508,236,149.008,236,120H4C4,149.008,14.672,175.508,32.273,195.844z"/>
			<path style="fill:#F28C13;" d="M32.273,195.844c21.266-12.707,52.68-20.75,87.727-20.75c8.227,0,20.156,0.906,27.898,1.75
				c0,0,4.102-27.836,4.102-56.844H4C4,149.008,14.672,175.508,32.273,195.844z"/>
			<path style="fill:#67DDE0;" d="M120,64c-35.047,0-66.457-7.145-87.727-19.844C14.672,64.492,4,90.992,4,120h232
				c0-29.008-10.672-55.508-28.273-75.844C186.457,56.855,155.047,64,120,64z"/>
			<path style="fill:#ACF0F2;" d="M92.211,62.434C56,58.875,32.25,44.137,32.25,44.137C14.648,64.477,4,90.992,4,120h84
				C88,120,88.625,82.078,92.211,62.434z"/>
			<circle style="fill:none;stroke:#4D5152;stroke-width:8;stroke-miterlimit:10;" cx="120" cy="120" r="116"/>
			<line style="fill:none;stroke:#4D5152;stroke-width:8;stroke-miterlimit:10;" x1="4" y1="120" x2="236" y2="120"/>
			<path style="fill:none;stroke:#4D5152;stroke-width:8;stroke-miterlimit:10;" d="M152,120c0,64.063-14.328,116-32,116
				c-12.07,0-22.582-24.227-28.031-60"/>
			<path style="fill:none;stroke:#4D5152;stroke-width:8;stroke-miterlimit:10;" d="M88,120C88,55.938,102.328,4,120,4
				c12.07,0,22.578,24.227,28.031,60"/>
			<path style="fill:none;stroke:#4D5152;stroke-width:8;stroke-miterlimit:10;" d="M180,184c-13.609,31.336-33.523,52-60,52
				c-41.973,0-76-51.938-76-116"/>
			<path style="fill:none;stroke:#4D5152;stroke-width:8;stroke-miterlimit:10;" d="M60,56C73.605,24.664,93.523,4,120,4
				c41.973,0,76,51.938,76,116"/>
			<path style="fill:none;stroke:#4D5152;stroke-width:8;stroke-miterlimit:10;" d="M208,44c-21.273,12.797-52.805,20-88,20
				c-35.191,0-66.727-7.199-88-20"/>
			<path style="fill:none;stroke:#4D5152;stroke-width:8;stroke-miterlimit:10;" d="M208,196
				c-21.273-12.797-52.805-20.906-88-20.906c-35.191,0-66.727,8.105-88,20.906"/>
			<line style="fill:none;stroke:#4D5152;stroke-width:8;stroke-miterlimit:10;" x1="40" y1="104" x2="48" y2="104"/>
			<line style="fill:none;stroke:#4D5152;stroke-width:8;stroke-miterlimit:10;" x1="44" y1="88" x2="52" y2="88"/>
			<line style="fill:none;stroke:#4D5152;stroke-width:8;stroke-miterlimit:10;" x1="48" y1="72" x2="56" y2="72"/>
			<line style="fill:none;stroke:#4D5152;stroke-width:8;stroke-miterlimit:10;" x1="192" y1="136" x2="200" y2="136"/>
			<line style="fill:none;stroke:#4D5152;stroke-width:8;stroke-miterlimit:10;" x1="188" y1="152" x2="196" y2="152"/>
			<line style="fill:none;stroke:#4D5152;stroke-width:8;stroke-miterlimit:10;" x1="184" y1="168" x2="192" y2="168"/>
		</g>
	</g>
</g>
<g id="Layer_1">
</g>
</svg>
