<?xml version="1.0" encoding="iso-8859-1"?>
<!-- Generator: Adobe Illustrator 16.0.0, SVG Export Plug-In . SVG Version: 6.00 Build 0)  -->
<!DOCTYPE svg PUBLIC "-//W3C//DTD SVG 1.1//EN" "http://www.w3.org/Graphics/SVG/1.1/DTD/svg11.dtd">
<svg version="1.1" xmlns="http://www.w3.org/2000/svg" xmlns:xlink="http://www.w3.org/1999/xlink" x="0px" y="0px" width="256px"
	 height="248px" viewBox="0 0 256 248" style="enable-background:new 0 0 256 248;" xml:space="preserve">
<g id="Layer_89">
	<g>
		<g>
			<g>
				<path style="fill:#FFFFFF;" d="M204,164c26.508,0,48-21.492,48-48c0-23.789-16-44-40-44c0-20-12-36-36-36h-4
					c-10.91-19.695-31.887-32-56-32C80.656,4,52,32.656,52,68C25.492,68,4,89.492,4,116s21.492,48,48,48H204z"/>
				<path style="fill:none;stroke:#4D5152;stroke-width:8;stroke-miterlimit:10;" d="M160,164h44c26.508,0,48-21.492,48-48
					c0-23.789-16-44-40-44c0-20-12-36-36-36h-4c-10.91-19.695-31.887-32-56-32C80.656,4,52,32.656,52,68C25.492,68,4,89.492,4,116
					s21.492,48,48,48h44"/>
			</g>
			<g>
				
					<rect x="163.858" y="193.029" transform="matrix(0.7071 0.7071 -0.7071 0.7071 200.6274 -64.3574)" style="fill:#FFFFFF;" width="28.284" height="33.941"/>
				
					<rect x="63.858" y="93.029" transform="matrix(0.7071 0.7071 -0.7071 0.7071 100.6274 -22.9361)" style="fill:#FFFFFF;" width="28.284" height="33.941"/>
				
					<rect x="63.858" y="193.029" transform="matrix(-0.7071 0.7071 -0.7071 -0.7071 281.6467 303.3381)" style="fill:#FFFFFF;" width="28.284" height="33.941"/>
				
					<rect x="163.858" y="93.029" transform="matrix(-0.7071 0.7071 -0.7071 -0.7071 381.6468 61.9167)" style="fill:#FFFFFF;" width="28.284" height="33.941"/>
				<g>
					<polygon style="fill:#FFFFFF;" points="212,160 212,176 188,176 188,144 212,144 					"/>
					<polygon style="fill:none;stroke:#4D5152;stroke-width:8;stroke-miterlimit:10;" points="212,160 212,176 188,176 188,144 
						212,144 					"/>
				</g>
				<g>
					<polygon style="fill:#FFFFFF;" points="128,76 144,76 144,100 112,100 112,76 					"/>
					<polygon style="fill:none;stroke:#4D5152;stroke-width:8;stroke-miterlimit:10;" points="128,76 144,76 144,100 112,100 
						112,76 					"/>
				</g>
				<g>
					<polygon style="fill:#FFFFFF;" points="128,220 144,220 144,244 112,244 112,220 					"/>
					<polygon style="fill:none;stroke:#4D5152;stroke-width:8;stroke-miterlimit:10;" points="128,220 144,220 144,244 112,244 
						112,220 					"/>
				</g>
				<g>
					<polygon style="fill:#FFFFFF;" points="44,160 44,144 68,144 68,176 44,176 					"/>
					<polygon style="fill:none;stroke:#4D5152;stroke-width:8;stroke-miterlimit:10;" points="44,160 44,144 68,144 68,176 44,176 
											"/>
				</g>
				
					<rect x="163.858" y="193.029" transform="matrix(0.7071 0.7071 -0.7071 0.7071 200.6274 -64.3574)" style="fill:none;stroke:#4D5152;stroke-width:8;stroke-miterlimit:10;" width="28.284" height="33.941"/>
				
					<rect x="63.858" y="93.029" transform="matrix(0.7071 0.7071 -0.7071 0.7071 100.6274 -22.9361)" style="fill:none;stroke:#4D5152;stroke-width:8;stroke-miterlimit:10;" width="28.284" height="33.941"/>
				
					<rect x="63.858" y="193.029" transform="matrix(-0.7071 0.7071 -0.7071 -0.7071 281.6467 303.3381)" style="fill:none;stroke:#4D5152;stroke-width:8;stroke-miterlimit:10;" width="28.284" height="33.941"/>
				
					<rect x="163.858" y="93.029" transform="matrix(-0.7071 0.7071 -0.7071 -0.7071 381.6468 61.9167)" style="fill:none;stroke:#4D5152;stroke-width:8;stroke-miterlimit:10;" width="28.284" height="33.941"/>
				<circle style="fill:#67DDE0;" cx="128" cy="160" r="64"/>
				<path style="fill:#FFFFFF;" d="M168,160c0,22.086-17.906,40-40,40s-40-17.914-40-40c0-22.09,17.906-40,40-40S168,137.91,168,160
					z"/>
				<path style="fill:none;stroke:#4D5152;stroke-width:8;stroke-miterlimit:10;" d="M168,160c0,22.086-17.906,40-40,40
					s-40-17.914-40-40c0-22.09,17.906-40,40-40S168,137.91,168,160z"/>
				<circle style="fill:none;stroke:#4D5152;stroke-width:8;stroke-miterlimit:10;" cx="128" cy="160" r="64"/>
				<circle style="fill:none;stroke:#4D5152;stroke-width:8;stroke-miterlimit:10;" cx="128" cy="160" r="20"/>
				<line style="fill:none;stroke:#4D5152;stroke-width:8;stroke-miterlimit:10;" x1="124" y1="160" x2="132" y2="160"/>
			</g>
		</g>
	</g>
</g>
<g id="Layer_1">
</g>
</svg>
